<svg xmlns="http://www.w3.org/2000/svg" width="800" height="900" viewBox="0 0 800 900" fill="none">
  <defs>
    <linearGradient id="bg" x1="0" y1="0" x2="0" y2="1">
      <stop offset="0%" stop-color="#f2e6d3"/>
      <stop offset="100%" stop-color="#e6d8c0"/>
    </linearGradient>
    <filter id="shadow" x="-20%" y="-20%" width="140%" height="140%">
      <feDropShadow dx="0" dy="18" stdDeviation="18" flood-color="#8f7b5c" flood-opacity="0.18"/>
    </filter>
  </defs>
  <rect width="800" height="900" fill="url(#bg)"/>
  <circle cx="660" cy="124" r="98" fill="#ffffff" fill-opacity="0.28"/>
  <circle cx="132" cy="786" r="140" fill="#ffffff" fill-opacity="0.20"/>
  <rect x="88" y="122" width="624" height="656" rx="44" fill="#fbf7f1" stroke="#dfd1bb"/>
  
  
  <ellipse cx="400" cy="515" rx="168.0" ry="32" fill="#d8cab7" fill-opacity="0.45"/>
  <g filter="url(#shadow)">
    <ellipse cx="400" cy="485" rx="180.0" ry="80.0" fill="#fbf7ef"/>
    <ellipse cx="400" cy="473" rx="162.0" ry="58.0" fill="#fffdf8" stroke="#e4d7c2" stroke-width="8"/>
  </g>
  
  <rect x="540" y="260" width="16" height="248" rx="8" transform="rotate(24 540 260)" fill="#7e5d3f"/>
  <rect x="568" y="258" width="16" height="248" rx="8" transform="rotate(24 568 258)" fill="#7e5d3f" fill-opacity="0.88"/>

  <ellipse cx="400" cy="470" rx="152" ry="58" fill="#d6b27a"/>
  <path d="M266 468c30 18 54 24 88 20s64-28 94-22 58 34 88 22" stroke="#edd09a" stroke-width="11" stroke-linecap="round"/><path d="M284 468c30 18 54 24 88 20s64-28 94-22 58 34 88 22" stroke="#edd09a" stroke-width="11" stroke-linecap="round"/><path d="M302 468c30 18 54 24 88 20s64-28 94-22 58 34 88 22" stroke="#edd09a" stroke-width="11" stroke-linecap="round"/><path d="M320 468c30 18 54 24 88 20s64-28 94-22 58 34 88 22" stroke="#edd09a" stroke-width="11" stroke-linecap="round"/>
  <ellipse cx="326" cy="430" rx="50" ry="20" fill="#b5483e"/>
  <ellipse cx="470" cy="430" rx="56" ry="22" fill="#f1dfd0" stroke="#e0c8b0" stroke-width="4"/>
  <circle cx="332" cy="490" r="12" fill="#6a9657"/>
  <circle cx="486" cy="480" r="12" fill="#6a9657"/>
  <rect x="380" y="404" width="28" height="84" rx="14" fill="#f8faf2"/>

</svg>