<svg xmlns="http://www.w3.org/2000/svg" width="800" height="900" viewBox="0 0 800 900" fill="none">
  <defs>
    <linearGradient id="bg" x1="0" y1="0" x2="0" y2="1">
      <stop offset="0%" stop-color="#f2e7d5"/>
      <stop offset="100%" stop-color="#e5d6bf"/>
    </linearGradient>
    <filter id="shadow" x="-20%" y="-20%" width="140%" height="140%">
      <feDropShadow dx="0" dy="18" stdDeviation="18" flood-color="#8f7b5c" flood-opacity="0.18"/>
    </filter>
  </defs>
  <rect width="800" height="900" fill="url(#bg)"/>
  <circle cx="660" cy="124" r="98" fill="#ffffff" fill-opacity="0.28"/>
  <circle cx="132" cy="786" r="140" fill="#ffffff" fill-opacity="0.20"/>
  <rect x="88" y="122" width="624" height="656" rx="44" fill="#fbf7f1" stroke="#dfd1bb"/>
  
  
  <ellipse cx="400" cy="488" rx="200" ry="42" fill="#d6c7b1" fill-opacity="0.42"/>
  <g filter="url(#shadow)">
    <circle cx="400" cy="470" r="210" fill="#f7f0e4"/>
    <circle cx="400" cy="470" r="184" fill="#fffdf8" stroke="#e2d6c2" stroke-width="8"/>
  </g>
  <ellipse cx="400" cy="530" rx="150" ry="44" fill="#e6c17e"/>
  <rect x="254" y="470" width="292" height="42" rx="18" fill="#4d281d"/>
  <rect x="260" y="440" width="280" height="22" rx="11" fill="#6f9c57"/>
  <rect x="268" y="458" width="264" height="14" rx="7" fill="#f0d35d"/>
  <rect x="280" y="426" width="240" height="18" rx="9" fill="#d35b48" fill-opacity="0.92"/>
  <path d="M248 416c0-62 58-102 152-102s152 40 152 102v10H248v-10Z" fill="#ba8948"/>
  <g fill="#fff1ca">
    <ellipse cx="335" cy="356" rx="7" ry="4" transform="rotate(-14 335 356)"/>
    <ellipse cx="382" cy="340" rx="7" ry="4" transform="rotate(18 382 340)"/>
    <ellipse cx="427" cy="364" rx="7" ry="4" transform="rotate(-10 427 364)"/>
    <ellipse cx="470" cy="346" rx="7" ry="4" transform="rotate(16 470 346)"/>
  </g>
  <rect x="298" y="542" width="204" height="26" rx="13" fill="#c6853e"/>

</svg>