<svg xmlns="http://www.w3.org/2000/svg" width="800" height="900" viewBox="0 0 800 900" fill="none">
  <defs>
    <linearGradient id="bg" x1="0" y1="0" x2="0" y2="1">
      <stop offset="0%" stop-color="#f0e7d8"/>
      <stop offset="100%" stop-color="#e2d8c7"/>
    </linearGradient>
    <filter id="shadow" x="-20%" y="-20%" width="140%" height="140%">
      <feDropShadow dx="0" dy="18" stdDeviation="18" flood-color="#8f7b5c" flood-opacity="0.18"/>
    </filter>
  </defs>
  <rect width="800" height="900" fill="url(#bg)"/>
  <circle cx="660" cy="124" r="98" fill="#ffffff" fill-opacity="0.28"/>
  <circle cx="132" cy="786" r="140" fill="#ffffff" fill-opacity="0.20"/>
  <rect x="88" y="122" width="624" height="656" rx="44" fill="#fbf7f1" stroke="#dfd1bb"/>
  
  
  <ellipse cx="400" cy="488" rx="204" ry="42" fill="#d6c7b1" fill-opacity="0.42"/>
  <g filter="url(#shadow)">
    <circle cx="400" cy="470" r="214" fill="#f8f3ea"/>
    <circle cx="400" cy="470" r="188" fill="#fffdf8" stroke="#e2d6c2" stroke-width="8"/>
  </g>
  <ellipse cx="400" cy="468" rx="152" ry="122" fill="#f7faf6"/>
  <path d="M316 476c-34-24-46-62-18-88 28-26 64-10 86 18-8 22-26 48-68 70Z" fill="#6d9b59"/>
  <path d="M396 420c-8-38 20-74 58-74 38 0 58 34 54 64-18 24-58 42-112 10Z" fill="#76a85f"/>
  <path d="M470 500c12-40 46-58 78-40 32 18 26 62 0 86-30 4-62-10-78-46Z" fill="#688d51"/>
  <path d="M330 536c10-40 44-58 76-46 34 12 36 54 14 84-34 8-70-4-90-38Z" fill="#7fae66"/>
  <circle cx="332" cy="414" r="18" fill="#d45545"/>
  <circle cx="464" cy="392" r="18" fill="#d45545"/>
  <circle cx="492" cy="512" r="18" fill="#d45545"/>
  <ellipse cx="412" cy="490" rx="42" ry="26" fill="#f0d78d"/>
  <ellipse cx="370" cy="382" rx="24" ry="18" fill="#f5e9c6"/>

</svg>