<svg xmlns="http://www.w3.org/2000/svg" width="800" height="900" viewBox="0 0 800 900" fill="none">
  <defs>
    <linearGradient id="bg" x1="0" y1="0" x2="0" y2="1">
      <stop offset="0%" stop-color="#f1e4d3"/>
      <stop offset="100%" stop-color="#e4d1be"/>
    </linearGradient>
    <filter id="shadow" x="-20%" y="-20%" width="140%" height="140%">
      <feDropShadow dx="0" dy="18" stdDeviation="18" flood-color="#8f7b5c" flood-opacity="0.18"/>
    </filter>
  </defs>
  <rect width="800" height="900" fill="url(#bg)"/>
  <circle cx="660" cy="124" r="98" fill="#ffffff" fill-opacity="0.28"/>
  <circle cx="132" cy="786" r="140" fill="#ffffff" fill-opacity="0.20"/>
  <rect x="88" y="122" width="624" height="656" rx="44" fill="#fbf7f1" stroke="#dfd1bb"/>
  
  
  <ellipse cx="400" cy="488" rx="202" ry="42" fill="#d6c7b1" fill-opacity="0.42"/>
  <g filter="url(#shadow)">
    <circle cx="400" cy="470" r="212" fill="#f7f0e6"/>
    <circle cx="400" cy="470" r="186" fill="#fffdf8" stroke="#e2d6c2" stroke-width="8"/>
  </g>
  <rect x="248" y="344" width="146" height="106" rx="20" fill="#bd4f3d"/>
  <rect x="404" y="344" width="146" height="106" rx="20" fill="#8a3a31"/>
  <rect x="286" y="462" width="228" height="110" rx="24" fill="#b65a31"/>
  <g fill="#f2d2aa">
    <ellipse cx="320" cy="390" rx="22" ry="16"/>
    <ellipse cx="352" cy="408" rx="18" ry="14"/>
    <ellipse cx="450" cy="392" rx="22" ry="16"/>
    <ellipse cx="484" cy="408" rx="18" ry="14"/>
    <ellipse cx="344" cy="516" rx="22" ry="16"/>
    <ellipse cx="394" cy="538" rx="20" ry="16"/>
    <ellipse cx="450" cy="510" rx="22" ry="16"/>
  </g>
  <g fill="#9a1f1f">
    <circle cx="302" cy="360" r="9"/>
    <circle cx="370" cy="376" r="9"/>
    <circle cx="432" cy="364" r="9"/>
    <circle cx="504" cy="380" r="9"/>
    <circle cx="326" cy="560" r="9"/>
    <circle cx="472" cy="548" r="9"/>
  </g>
  <g fill="#5f9150">
    <circle cx="330" cy="364" r="8"/>
    <circle cx="474" cy="360" r="8"/>
    <circle cx="362" cy="492" r="8"/>
    <circle cx="442" cy="484" r="8"/>
  </g>

</svg>