<svg xmlns="http://www.w3.org/2000/svg" width="800" height="900" viewBox="0 0 800 900" fill="none">
  <defs>
    <linearGradient id="bg" x1="0" y1="0" x2="0" y2="1">
      <stop offset="0%" stop-color="#f3e8d8"/>
      <stop offset="100%" stop-color="#e7d8c4"/>
    </linearGradient>
    <filter id="shadow" x="-20%" y="-20%" width="140%" height="140%">
      <feDropShadow dx="0" dy="18" stdDeviation="18" flood-color="#8f7b5c" flood-opacity="0.18"/>
    </filter>
  </defs>
  <rect width="800" height="900" fill="url(#bg)"/>
  <circle cx="660" cy="124" r="98" fill="#ffffff" fill-opacity="0.28"/>
  <circle cx="132" cy="786" r="140" fill="#ffffff" fill-opacity="0.20"/>
  <rect x="88" y="122" width="624" height="656" rx="44" fill="#fbf7f1" stroke="#dfd1bb"/>
  
  
  <ellipse cx="400" cy="515" rx="168.0" ry="32" fill="#d8cab7" fill-opacity="0.45"/>
  <g filter="url(#shadow)">
    <ellipse cx="400" cy="485" rx="180.0" ry="80.0" fill="#fbf8f2"/>
    <ellipse cx="400" cy="473" rx="162.0" ry="58.0" fill="#fffdf8" stroke="#e4d7c2" stroke-width="8"/>
  </g>
  <ellipse cx="400" cy="472" rx="152" ry="58" fill="#efe2cf"/>
  <path d="M332 428c18-24 42-28 58-4 10 14 10 34 0 52-20 6-42 4-58-8-10-16-10-30 0-40Z" fill="#f4dfbf"/><path d="M420 452c20-26 48-24 62 0 8 14 6 34-8 50-22 6-44 2-58-12-10-16-8-28 4-38Z" fill="#f4dfbf"/><path d="M360 508c16-24 40-28 58-8 12 12 14 32 4 52-18 8-40 8-58-2-14-16-16-28-4-42Z" fill="#f4dfbf"/>
  <circle cx="300" cy="456" r="8" fill="#6f9758"/>
  <circle cx="508" cy="470" r="8" fill="#6f9758"/>
  <circle cx="458" cy="410" r="7" fill="#6f9758"/>
  <circle cx="360" cy="392" r="7" fill="#6f9758"/>
  
  <rect x="522" y="264" width="16" height="248" rx="8" transform="rotate(24 522 264)" fill="#856648"/>
  <rect x="550" y="262" width="16" height="248" rx="8" transform="rotate(24 550 262)" fill="#856648" fill-opacity="0.88"/>


</svg>