<svg xmlns="http://www.w3.org/2000/svg" width="800" height="900" viewBox="0 0 800 900" fill="none">
  <defs>
    <linearGradient id="bg" x1="0" y1="0" x2="0" y2="1">
      <stop offset="0%" stop-color="#f2e6d5"/>
      <stop offset="100%" stop-color="#e5d6c2"/>
    </linearGradient>
    <filter id="shadow" x="-20%" y="-20%" width="140%" height="140%">
      <feDropShadow dx="0" dy="18" stdDeviation="18" flood-color="#8f7b5c" flood-opacity="0.18"/>
    </filter>
  </defs>
  <rect width="800" height="900" fill="url(#bg)"/>
  <circle cx="660" cy="124" r="98" fill="#ffffff" fill-opacity="0.28"/>
  <circle cx="132" cy="786" r="140" fill="#ffffff" fill-opacity="0.20"/>
  <rect x="88" y="122" width="624" height="656" rx="44" fill="#fbf7f1" stroke="#dfd1bb"/>
  
  
  <ellipse cx="400" cy="488" rx="204" ry="42" fill="#d6c7b1" fill-opacity="0.42"/>
  <g filter="url(#shadow)">
    <circle cx="400" cy="470" r="214" fill="#f7f0e5"/>
    <circle cx="400" cy="470" r="188" fill="#fffdf8" stroke="#e2d6c2" stroke-width="8"/>
  </g>
  <ellipse cx="400" cy="470" rx="156" ry="110" fill="#fffdf8"/>
  <ellipse cx="400" cy="482" rx="130" ry="84" fill="#f4f1eb"/>
  <path d="M292 438c28-26 72-28 102-8 8 22 4 52-20 78-42 12-84 0-108-28-2-18 8-30 26-42Z" fill="#a84f3a"/>
  <path d="M410 432c32-22 78-18 110 16 10 24 6 52-12 82-40 12-84 6-114-20-8-34-4-58 16-78Z" fill="#d5a34a"/>
  <path d="M336 520c24-12 58-10 84 6 8 16 6 34-4 52-34 18-74 14-102-8-4-20 2-36 22-50Z" fill="#e0c579"/>
  <g fill="#6f9158">
    <circle cx="298" cy="520" r="9"/>
    <circle cx="478" cy="548" r="9"/>
    <circle cx="446" cy="420" r="9"/>
  </g>

</svg>