<svg xmlns="http://www.w3.org/2000/svg" width="800" height="900" viewBox="0 0 800 900" fill="none">
  <defs>
    <linearGradient id="bg" x1="0" y1="0" x2="0" y2="1">
      <stop offset="0%" stop-color="#f3eadf"/>
      <stop offset="100%" stop-color="#e5d7c2"/>
    </linearGradient>
    <filter id="shadow" x="-20%" y="-20%" width="140%" height="140%">
      <feDropShadow dx="0" dy="18" stdDeviation="18" flood-color="#8f7b5c" flood-opacity="0.18"/>
    </filter>
  </defs>
  <rect width="800" height="900" fill="url(#bg)"/>
  <circle cx="660" cy="124" r="98" fill="#ffffff" fill-opacity="0.28"/>
  <circle cx="132" cy="786" r="140" fill="#ffffff" fill-opacity="0.20"/>
  <rect x="88" y="122" width="624" height="656" rx="44" fill="#fbf7f1" stroke="#dfd1bb"/>
  
  
  <ellipse cx="400" cy="515" rx="168.0" ry="32" fill="#d8cab7" fill-opacity="0.45"/>
  <g filter="url(#shadow)">
    <ellipse cx="400" cy="485" rx="180.0" ry="80.0" fill="#faf7f0"/>
    <ellipse cx="400" cy="473" rx="162.0" ry="58.0" fill="#fffdf8" stroke="#e4d7c2" stroke-width="8"/>
  </g>
  
  <rect x="540" y="260" width="16" height="248" rx="8" transform="rotate(24 540 260)" fill="#846548"/>
  <rect x="568" y="258" width="16" height="248" rx="8" transform="rotate(24 568 258)" fill="#846548" fill-opacity="0.88"/>

  <ellipse cx="400" cy="472" rx="152" ry="58" fill="#ece1c8"/>
  <path d="M266 468c36 20 66 16 94 4s54-24 92-10 54 20 84 8" stroke="#edd49e" stroke-width="10" stroke-linecap="round"/><path d="M286 468c36 20 66 16 94 4s54-24 92-10 54 20 84 8" stroke="#edd49e" stroke-width="10" stroke-linecap="round"/><path d="M306 468c36 20 66 16 94 4s54-24 92-10 54 20 84 8" stroke="#edd49e" stroke-width="10" stroke-linecap="round"/><path d="M326 468c36 20 66 16 94 4s54-24 92-10 54 20 84 8" stroke="#edd49e" stroke-width="10" stroke-linecap="round"/>
  <path d="M306 434c20-26 62-40 100-12 26 18 44 16 76 2 34-14 72 6 86 38-32 18-54 18-88 8-26-8-54-8-80 2-34 12-66 8-94-12Z" fill="#f6fbfc" stroke="#d8e6e6" stroke-width="4"/>
  <circle cx="332" cy="438" r="8" fill="#7da46d"/>
  <circle cx="474" cy="456" r="8" fill="#7da46d"/>
  <circle cx="292" cy="480" r="10" fill="#6f9c5f"/>
  <circle cx="510" cy="424" r="9" fill="#6f9c5f"/>

</svg>