<svg xmlns="http://www.w3.org/2000/svg" width="800" height="900" viewBox="0 0 800 900" fill="none">
  <defs>
    <linearGradient id="bg" x1="0" y1="0" x2="0" y2="1">
      <stop offset="0%" stop-color="#f3e7d4"/>
      <stop offset="100%" stop-color="#e7d8c0"/>
    </linearGradient>
    <filter id="shadow" x="-20%" y="-20%" width="140%" height="140%">
      <feDropShadow dx="0" dy="18" stdDeviation="18" flood-color="#8f7b5c" flood-opacity="0.18"/>
    </filter>
  </defs>
  <rect width="800" height="900" fill="url(#bg)"/>
  <circle cx="660" cy="124" r="98" fill="#ffffff" fill-opacity="0.28"/>
  <circle cx="132" cy="786" r="140" fill="#ffffff" fill-opacity="0.20"/>
  <rect x="88" y="122" width="624" height="656" rx="44" fill="#fbf7f1" stroke="#dfd1bb"/>
  
  
  <ellipse cx="400" cy="515" rx="168.0" ry="32" fill="#d8cab7" fill-opacity="0.45"/>
  <g filter="url(#shadow)">
    <ellipse cx="400" cy="485" rx="180.0" ry="80.0" fill="#fbf7ef"/>
    <ellipse cx="400" cy="473" rx="162.0" ry="58.0" fill="#fffdf8" stroke="#e4d7c2" stroke-width="8"/>
  </g>
  
  <rect x="540" y="260" width="16" height="248" rx="8" transform="rotate(24 540 260)" fill="#7e5d3f"/>
  <rect x="568" y="258" width="16" height="248" rx="8" transform="rotate(24 568 258)" fill="#7e5d3f" fill-opacity="0.88"/>

  <ellipse cx="400" cy="470" rx="154" ry="56" fill="#d3b27c"/>
  <path d="M252 455c34 16 56 34 92 30s58-26 92-18 58 36 98 24" stroke="#f1d39a" stroke-width="11" stroke-linecap="round"/><path d="M270 455c34 16 56 34 92 30s58-26 92-18 58 36 98 24" stroke="#f1d39a" stroke-width="11" stroke-linecap="round"/><path d="M288 455c34 16 56 34 92 30s58-26 92-18 58 36 98 24" stroke="#f1d39a" stroke-width="11" stroke-linecap="round"/><path d="M306 455c34 16 56 34 92 30s58-26 92-18 58 36 98 24" stroke="#f1d39a" stroke-width="11" stroke-linecap="round"/><path d="M324 455c34 16 56 34 92 30s58-26 92-18 58 36 98 24" stroke="#f1d39a" stroke-width="11" stroke-linecap="round"/>
  <path d="M308 452c44-8 68-6 102 4" stroke="#fff2d4" stroke-width="10" stroke-linecap="round"/>
  <path d="M424 474c30-10 58-12 90-4" stroke="#fff2d4" stroke-width="10" stroke-linecap="round"/>
  <ellipse cx="338" cy="430" rx="54" ry="16" fill="#f1f4f2" transform="rotate(-18 338 430)"/>
  <ellipse cx="462" cy="418" rx="54" ry="16" fill="#f1f4f2" transform="rotate(14 462 418)"/>
  <ellipse cx="406" cy="434" rx="42" ry="18" fill="#9a5042"/>
  <ellipse cx="474" cy="468" rx="34" ry="14" fill="#b24639"/>
  <circle cx="520" cy="438" r="13" fill="#5f8d53"/>
  <circle cx="286" cy="486" r="11" fill="#5f8d53"/>
  <circle cx="504" cy="488" r="10" fill="#6a9658"/>

</svg>