<svg xmlns="http://www.w3.org/2000/svg" width="800" height="900" viewBox="0 0 800 900" fill="none">
  <defs>
    <linearGradient id="bg" x1="0" y1="0" x2="0" y2="1">
      <stop offset="0%" stop-color="#f0e4d1"/>
      <stop offset="100%" stop-color="#e4d1bc"/>
    </linearGradient>
    <filter id="shadow" x="-20%" y="-20%" width="140%" height="140%">
      <feDropShadow dx="0" dy="18" stdDeviation="18" flood-color="#8f7b5c" flood-opacity="0.18"/>
    </filter>
  </defs>
  <rect width="800" height="900" fill="url(#bg)"/>
  <circle cx="660" cy="124" r="98" fill="#ffffff" fill-opacity="0.28"/>
  <circle cx="132" cy="786" r="140" fill="#ffffff" fill-opacity="0.20"/>
  <rect x="88" y="122" width="624" height="656" rx="44" fill="#fbf7f1" stroke="#dfd1bb"/>
  
  
  <ellipse cx="400" cy="488" rx="204" ry="42" fill="#d6c7b1" fill-opacity="0.42"/>
  <g filter="url(#shadow)">
    <circle cx="400" cy="470" r="214" fill="#f7efe3"/>
    <circle cx="400" cy="470" r="188" fill="#fffdf8" stroke="#e2d6c2" stroke-width="8"/>
  </g>
  <ellipse cx="354" cy="450" rx="92" ry="46" fill="#7d4a2f"/>
  <ellipse cx="444" cy="520" rx="88" ry="44" fill="#915533"/>
  <ellipse cx="466" cy="426" rx="82" ry="42" fill="#7f472e"/>
  <rect x="292" y="560" width="204" height="26" rx="13" fill="#dbbf73"/>
  <path d="M282 388c24-18 48-16 64 8 18 24 18 48 10 74-38 8-72 2-100-24 0-30 6-48 26-58Z" fill="#d7bc74"/>
  <g fill="#d9d0c0">
    <ellipse cx="324" cy="446" rx="14" ry="6" transform="rotate(-24 324 446)"/>
    <ellipse cx="500" cy="540" rx="14" ry="6" transform="rotate(18 500 540)"/>
    <ellipse cx="474" cy="388" rx="14" ry="6" transform="rotate(-18 474 388)"/>
  </g>
  <g fill="#b85c41">
    <circle cx="376" cy="418" r="9"/>
    <circle cx="430" cy="540" r="9"/>
    <circle cx="492" cy="444" r="9"/>
  </g>
  <g fill="#6d8b55">
    <circle cx="292" cy="484" r="10"/>
    <circle cx="464" cy="566" r="10"/>
    <circle cx="546" cy="430" r="10"/>
  </g>

</svg>