<svg xmlns="http://www.w3.org/2000/svg" width="800" height="900" viewBox="0 0 800 900" fill="none">
  <defs>
    <linearGradient id="bg" x1="0" y1="0" x2="0" y2="1">
      <stop offset="0%" stop-color="#f1e4d2"/>
      <stop offset="100%" stop-color="#e3d4bf"/>
    </linearGradient>
    <filter id="shadow" x="-20%" y="-20%" width="140%" height="140%">
      <feDropShadow dx="0" dy="18" stdDeviation="18" flood-color="#8f7b5c" flood-opacity="0.18"/>
    </filter>
  </defs>
  <rect width="800" height="900" fill="url(#bg)"/>
  <circle cx="660" cy="124" r="98" fill="#ffffff" fill-opacity="0.28"/>
  <circle cx="132" cy="786" r="140" fill="#ffffff" fill-opacity="0.20"/>
  <rect x="88" y="122" width="624" height="656" rx="44" fill="#fbf7f1" stroke="#dfd1bb"/>
  
  
  <ellipse cx="400" cy="488" rx="204" ry="42" fill="#d6c7b1" fill-opacity="0.42"/>
  <g filter="url(#shadow)">
    <circle cx="400" cy="470" r="214" fill="#f7f0e5"/>
    <circle cx="400" cy="470" r="188" fill="#fffdf8" stroke="#e2d6c2" stroke-width="8"/>
  </g>
  <path d="M302 512c-34-42-24-92 26-114 34-16 72-6 98 28 26 32 32 66 8 102-30 24-96 18-132-16Z" fill="#b96d2c"/>
  <path d="M450 510c-28-34-22-78 12-104 38-28 94-12 118 30 18 36 10 82-22 106-36 18-82 10-108-32Z" fill="#c37a31"/>
  <circle cx="282" cy="470" r="22" fill="#f6efe4"/>
  <rect x="260" y="456" width="52" height="24" rx="12" fill="#f6efe4"/>
  <circle cx="572" cy="462" r="22" fill="#f6efe4"/>
  <rect x="548" y="448" width="52" height="24" rx="12" fill="#f6efe4"/>
  <rect x="340" y="566" width="120" height="24" rx="12" fill="#d1b36f"/>

</svg>